<?xml version="1.0" standalone="no"?>
<!DOCTYPE svg PUBLIC "-//W3C//DTD SVG 20010904//EN"
 "http://www.w3.org/TR/2001/REC-SVG-20010904/DTD/svg10.dtd">
<svg version="1.0" xmlns="http://www.w3.org/2000/svg"
 width="260.000000pt" height="260.000000pt" viewBox="0 0 260.000000 260.000000"
 preserveAspectRatio="xMidYMid meet">
<metadata>
Created by potrace 1.14, written by Peter Selinger 2001-2017
</metadata>
<g transform="translate(0.000000,260.000000) scale(0.100000,-0.100000)"
fill="#000000" stroke="none">
<path d="M1303 2329 c-7 -7 -13 -32 -13 -54 0 -49 18 -62 90 -68 33 -3 29 -4
-13 -3 -31 1 -57 -3 -57 -7 0 -5 -4 -6 -9 -3 -14 9 -14 -149 1 -161 7 -6 40
-13 73 -16 33 -2 93 -15 133 -27 58 -18 75 -20 87 -10 8 7 15 18 15 24 0 7 9
31 21 55 11 23 19 50 17 58 -3 16 -10 21 -58 42 l-25 11 25 -6 c14 -3 34 -9
45 -14 11 -5 36 -15 56 -23 63 -25 203 -124 260 -184 64 -67 135 -165 173
-240 14 -28 29 -54 33 -56 14 -9 93 35 93 51 0 55 -143 267 -242 358 -133 121
-301 212 -468 252 -115 28 -221 37 -237 21z m174 -135 c-3 -3 -12 -4 -19 -1
-8 3 -5 6 6 6 11 1 17 -2 13 -5z m73 -14 c12 -8 12 -10 -5 -10 -11 0 -27 5
-35 10 -12 8 -12 10 5 10 11 0 27 -5 35 -10z"/>
<path d="M690 2134 c-41 -31 -76 -57 -77 -58 -1 -1 20 -26 47 -56 27 -30 49
-58 50 -62 0 -4 9 -12 20 -18 16 -8 28 -4 67 25 54 39 83 66 83 74 -1 18 -88
146 -100 149 -8 1 -49 -23 -90 -54z"/>
<path d="M1779 1948 c-60 -37 -133 -78 -176 -99 -45 -22 -79 -50 -104 -87 -14
-19 -21 -21 -41 -13 -22 8 -30 3 -78 -50 -29 -32 -57 -56 -61 -53 -5 3 -12 -3
-15 -13 -9 -29 -18 -45 -27 -44 -4 1 -17 -8 -29 -19 -12 -11 -28 -20 -35 -20
-7 0 -13 -5 -13 -10 0 -6 -3 -9 -7 -8 -5 1 -53 -19 -108 -46 -157 -76 -229
-90 -269 -54 -10 10 -23 15 -27 12 -5 -3 -21 2 -37 10 -29 15 -30 15 -70 -33
-46 -55 -48 -45 26 -162 23 -36 42 -71 42 -78 0 -6 4 -11 9 -11 5 0 16 -16 25
-35 19 -39 23 -41 50 -20 22 17 52 20 60 6 3 -4 -10 -27 -30 -49 -19 -23 -37
-51 -39 -63 -3 -12 -11 -29 -18 -38 -19 -22 -58 -118 -62 -152 -2 -15 -15 -46
-29 -68 -31 -48 -34 -87 -7 -96 19 -6 48 2 68 19 35 31 43 36 56 36 7 0 22 7
33 15 10 8 27 15 37 15 9 0 17 5 17 10 0 6 6 10 13 10 7 0 28 13 47 28 69 56
107 74 130 62 11 -6 20 -15 20 -20 0 -8 100 -60 115 -60 3 0 39 -16 81 -35 41
-19 81 -35 88 -35 6 0 20 10 30 23 10 12 27 31 38 43 16 18 17 25 7 47 -7 15
-16 24 -20 21 -5 -3 -6 1 -3 9 3 8 0 18 -5 22 -6 3 -9 11 -6 16 4 5 -1 9 -10
9 -9 0 -13 4 -10 10 3 5 2 17 -3 26 -9 17 1 100 23 185 4 15 2 30 -4 33 -6 4
0 17 14 32 13 14 33 54 46 90 14 40 36 78 56 97 18 18 33 37 33 44 0 6 20 35
45 64 38 44 45 58 40 81 -5 19 0 36 13 55 17 24 74 129 77 143 4 12 20 49 46
106 34 72 36 90 11 103 -14 7 -27 4 -53 -11z"/>
<path d="M1897 1897 c-18 -18 -43 -45 -55 -59 l-24 -26 50 -65 c27 -36 60 -86
73 -112 13 -25 28 -50 34 -55 17 -14 143 38 150 61 4 11 -8 47 -30 88 -38 71
-138 201 -156 201 -5 0 -24 -15 -42 -33z"/>
<path d="M337 1683 c-27 -48 -55 -194 -37 -191 3 1 18 -4 33 -10 16 -7 37 -12
47 -12 10 0 48 -7 84 -15 36 -9 79 -14 94 -13 27 2 31 8 49 66 20 62 20 65 2
80 -21 19 -226 102 -251 102 -9 0 -19 -3 -21 -7z"/>
<path d="M2154 1535 c-67 -16 -128 -36 -136 -42 -12 -10 -13 -25 -7 -69 12
-86 14 -87 167 -79 71 4 135 10 141 14 17 11 13 111 -7 161 -18 47 -29 48
-158 15z"/>
<path d="M303 1239 c-27 -8 -33 -15 -33 -37 0 -83 58 -285 107 -371 14 -25 31
-55 37 -66 71 -131 235 -288 400 -380 72 -40 104 -42 113 -5 3 14 9 30 13 35
24 33 18 56 -21 80 -21 14 -41 25 -44 25 -18 0 -158 106 -208 157 -75 77 -120
140 -167 238 -44 92 -70 177 -77 255 -3 30 -10 61 -15 68 -12 14 -58 14 -105
1z"/>
<path d="M2023 1199 c-7 -7 -13 -23 -13 -35 0 -45 -63 -200 -110 -268 -81
-119 -240 -251 -304 -254 -5 0 -12 -4 -15 -9 -9 -14 -177 -56 -190 -49 -6 4
-11 3 -11 -3 0 -10 -104 -9 -187 1 -28 4 -43 -6 -43 -27 0 -25 241 -26 327 -2
28 8 54 12 57 9 3 -3 6 -1 6 5 0 5 19 15 43 22 23 7 58 23 77 34 19 12 38 21
43 19 4 -1 7 2 7 7 0 9 90 66 93 59 1 -1 10 -13 20 -25 18 -21 18 -22 -35 -60
-64 -47 -159 -93 -253 -124 -59 -19 -95 -23 -234 -25 -90 -2 -168 -7 -173 -12
-4 -4 -13 -33 -18 -63 -5 -30 -12 -64 -16 -76 -4 -16 1 -26 22 -39 23 -16 49
-19 178 -18 171 0 265 19 409 80 150 64 313 191 419 325 90 114 189 341 200
458 3 40 -5 44 -132 61 -41 5 -93 13 -115 16 -26 4 -44 1 -52 -7z"/>
</g>
</svg>
